<svg xmlns="http://www.w3.org/2000/svg" width="833" height="833" viewBox="0 0 833 833">
  <defs>
    <style>
      .cls-1 {
        fill-rule: evenodd;
      }
    </style>
  </defs>
  <path id="Color_Fill_1" data-name="Color Fill 1" class="cls-1" d="M418,29c56.858-1.226,175.345,42.925,193,77-2.652,5.389-4.331,8.334-12,9-30.849-12.371-54.99-35.13-88-48-26.305-10.256-68.865-8.611-93-23q-1-6-2-12Zm3,50c69.065-1.374,124.666,25.435,158,61q-0.5,1.5-1,3c-1.986,6.156-5.334,9.412-13,10-24.207-12.087-42.578-31.265-70-42-22.371-8.758-51.676-5.837-78-13l-1-2q0.5-7.5,1-15ZM280,347c21.045-2.072,48.275-38.088,64-50a337.587,337.587,0,0,1,123-59c23.42-5.9,62.483-8.739,89-3,8.639,1.87,26.607,9.931,34,5-2.966-4.958-6.336-6.565-8-13h2c15.46-4.108,37.514,15.634,47,23,34.52,26.8,63.212,79.649,46,142-3.684,13.345-5.436,28.548-14,37h-1l11-48c9.559-61.148-33.809-117.054-73-130,2.68,24.514,12.689,42.9,17,69,16.344,98.951-61.936,182.492-121,208-74.224,32.055-150.806,8.653-201-27-11.99-8.516-34.241-19.1-37-36h10c99.335,31.108,221.8-47.871,263-95,0.2-5.1.019-8.465-2-11l-47,35c-46.528,32.725-115.194,69.986-202,56-13.931-2.245-24.927-6.827-37-10,1.374,7.834,5.793,10.927,4,19h-1c-48.019-8.093-84.923-62.966-95-111-4.961-23.645,1.942-70.271,15-81-2,20.215-10.257,43.667-6,69,7.431,44.217,35.43,88.842,75,100v-4c-49.072-124.393,8.9-234.763,101-275,88.381-38.611,200.3,1.057,239,61v1c-23.7-.446-46.377-8.437-73-4-75.643,12.606-124.542,35.5-173,73C312.594,300.7,281.077,320.707,280,347Zm284-63c-18.076,7.493-32.916,14.11-38,34-6.275,24.549,17.33,53.381,41,51C623.7,363.3,621.723,287.357,564,284ZM264,351l-3,5c-5.974,11.953,7.32,16.606,16,10v-5l-8-10h-5Zm35,217,47,18c19.538,5.993,41.512,5.377,64,9,30.8,4.961,70.2-5.416,92-14,10.485-4.129,18.887-11.77,32-13L447,742c-7.248,12.408-20.932,52.883-32,58Z"/>
</svg>
