<?xml version="1.0" standalone="no"?>
<!DOCTYPE svg PUBLIC "-//W3C//DTD SVG 20010904//EN"
 "http://www.w3.org/TR/2001/REC-SVG-20010904/DTD/svg10.dtd">
<svg version="1.0" xmlns="http://www.w3.org/2000/svg"
 width="200.000000pt" height="200.000000pt" viewBox="0 0 200.000000 200.000000"
 preserveAspectRatio="xMidYMid meet">

<g transform="translate(0.000000,200.000000) scale(0.100000,-0.100000)"
fill="#000000" stroke="none">
<path d="M1002 1909 c3 -21 11 -24 90 -36 102 -14 198 -52 287 -112 56 -39 65
-42 78 -28 14 14 11 19 -28 47 -97 70 -248 128 -382 146 -47 7 -49 6 -45 -17z"/>
<path d="M1000 1785 c0 -23 4 -25 48 -25 94 -1 193 -37 274 -102 37 -29 40
-30 56 -14 16 16 15 19 -18 47 -75 63 -225 119 -317 119 -39 0 -43 -2 -43 -25z"/>
<path d="M883 1646 c-173 -42 -316 -190 -354 -367 -16 -76 -6 -212 20 -273 12
-27 20 -51 17 -53 -8 -9 -84 47 -115 84 -51 62 -74 136 -68 218 3 39 8 79 12
90 5 17 5 17 -4 4 -6 -9 -16 -48 -23 -87 -10 -60 -9 -78 6 -134 22 -82 75
-153 146 -195 63 -39 86 -43 70 -14 -15 30 -13 31 26 15 49 -21 210 -20 289 0
85 23 208 87 289 151 38 30 72 55 77 55 4 0 7 -10 6 -22 -2 -28 -109 -116
-196 -161 -131 -69 -314 -103 -418 -79 -24 5 -43 6 -43 2 0 -20 111 -106 175
-136 243 -115 522 -15 640 231 35 72 39 89 43 180 4 87 1 110 -20 173 -14 39
-22 72 -18 72 4 0 27 -14 53 -30 113 -75 154 -231 102 -385 -6 -17 -5 -18 4
-3 6 9 18 44 27 79 39 152 -30 305 -169 376 -48 24 -72 24 -49 1 22 -22 12
-25 -40 -12 -183 48 -420 -26 -586 -181 -77 -71 -112 -94 -112 -73 0 47 141
173 261 233 123 63 284 94 389 76 30 -5 57 -7 59 -6 2 2 -20 26 -48 53 -115
110 -290 156 -448 118z m527 -341 c35 -18 50 -44 52 -88 2 -46 -18 -76 -59
-93 -46 -20 -86 -10 -118 28 -31 37 -33 85 -4 122 36 46 80 56 129 31z m-750
-160 c13 -16 6 -35 -15 -35 -18 0 -28 17 -21 35 7 19 20 19 36 0z"/>
<path d="M720 635 c0 -10 275 -555 280 -555 5 0 280 545 280 555 0 3 -18 -4
-40 -15 -128 -65 -352 -65 -480 0 -22 11 -40 18 -40 15z"/>
</g>
</svg>
